<svg width="17" height="12" viewBox="0 0 17 12" fill="none" xmlns="http://www.w3.org/2000/svg">
<path d="M3.96667 10.3636H5.1V12H3.96667C2.567 12 1.7 11.1655 1.7 9.81818V7.90909C1.7 7.23545 1.2665 6.81818 0.566667 6.81818H0V5.18182H0.566667C1.2665 5.18182 1.7 4.76455 1.7 4.09091V2.18182C1.7 0.834545 2.567 0 3.96667 0H5.1V1.63636H3.96667C3.61817 1.63636 3.4 1.84636 3.4 2.18182V4.09091C3.4 4.98545 3.01467 5.65091 2.34883 6C3.01467 6.34909 3.4 7.01455 3.4 7.90909V9.81818C3.4 10.1536 3.61817 10.3636 3.96667 10.3636ZM16.4333 5.18182C15.7335 5.18182 15.3 4.76455 15.3 4.09091V2.18182C15.3 0.834545 14.433 0 13.0333 0H11.9V1.63636H13.0333C13.3818 1.63636 13.6 1.84636 13.6 2.18182V4.09091C13.6 4.98545 13.9853 5.65091 14.6512 6C13.9853 6.34909 13.6 7.01455 13.6 7.90909V9.81818C13.6 10.1536 13.3818 10.3636 13.0333 10.3636H11.9V12H13.0333C14.433 12 15.3 11.1655 15.3 9.81818V7.90909C15.3 7.23545 15.7335 6.81818 16.4333 6.81818H17V5.18182H16.4333ZM5.1 4.90909C4.47383 4.90909 3.96667 5.39727 3.96667 6C3.96667 6.60273 4.47383 7.09091 5.1 7.09091C5.72617 7.09091 6.23333 6.60273 6.23333 6C6.23333 5.39727 5.72617 4.90909 5.1 4.90909ZM13.0333 6C13.0333 5.39727 12.5262 4.90909 11.9 4.90909C11.2738 4.90909 10.7667 5.39727 10.7667 6C10.7667 6.60273 11.2738 7.09091 11.9 7.09091C12.5262 7.09091 13.0333 6.60273 13.0333 6ZM8.5 4.90909C7.87383 4.90909 7.36667 5.39727 7.36667 6C7.36667 6.60273 7.87383 7.09091 8.5 7.09091C9.12617 7.09091 9.63333 6.60273 9.63333 6C9.63333 5.39727 9.12617 4.90909 8.5 4.90909Z" fill="#C94079"/>
</svg>
