<svg width="17" height="18" viewBox="0 0 17 18" fill="none" xmlns="http://www.w3.org/2000/svg">
<path fill-rule="evenodd" clip-rule="evenodd" d="M3.45763 0C1.54803 0 0 1.58535 0 3.54098V14.459C0 16.4146 1.54803 18 3.45763 18H8.35594C13.1299 18 17 14.0366 17 9.14751V8.85244C17 3.96338 13.1299 0 8.35594 0H3.45763ZM6.28259 8.90522C6.28259 8.382 5.86892 7.95785 5.35866 7.95785C4.8484 7.95785 4.43473 8.382 4.43473 8.90522C4.43473 11.0741 6.1033 12.8842 8.22281 12.8842C10.3423 12.8842 12.0108 11.0741 12.0108 8.90522C12.0108 8.382 11.5972 7.95785 11.0869 7.95785C10.5767 7.95785 10.163 8.382 10.163 8.90522C10.163 10.0849 9.26692 10.9894 8.22281 10.9894C7.17866 10.9894 6.28259 10.0849 6.28259 8.90522Z" fill="#FF7C7C"/>
</svg>
