<svg width="15" height="14" viewBox="0 0 15 14" fill="none" xmlns="http://www.w3.org/2000/svg">
<path d="M12.5 3.65217H11.25V2.43478C11.25 0.931304 10.2937 0 8.75 0H6.25C4.70625 0 3.75 0.931304 3.75 2.43478V3.65217H2.5C0.9625 3.65217 0 4.58956 0 6.08696V11.5652C0 13.0687 0.95625 14 2.5 14H12.5C14.0437 14 15 13.0687 15 11.5652V6.08696C15 4.58956 14.0375 3.65217 12.5 3.65217ZM5.625 2.43478C5.625 1.9387 5.74062 1.82609 6.25 1.82609H8.75C9.25937 1.82609 9.375 1.9387 9.375 2.43478V3.65217H5.625V2.43478ZM13.125 8.52174H1.875V7.30435H13.125V8.52174Z" fill="#C94079"/>
</svg>
